<?xml version="1.0" encoding="utf-8"?>
<!-- Generator: Adobe Illustrator 13.0.0, SVG Export Plug-In . SVG Version: 6.00 Build 14948)  -->
<!DOCTYPE svg PUBLIC "-//W3C//DTD SVG 1.1//EN" "http://www.w3.org/Graphics/SVG/1.1/DTD/svg11.dtd">
<svg version="1.1" id="Layer_1" xmlns="http://www.w3.org/2000/svg" xmlns:xlink="http://www.w3.org/1999/xlink" x="0px" y="0px"
	 width="130px" height="60px" viewBox="0 0 130 60" enable-background="new 0 0 130 60" xml:space="preserve">
<g>
	<path fill="#909090" stroke="#000000" d="M125.997,44.322c0,6.627-5.373,12-12,12H16.008c-6.628,0-12-5.373-12-12V15.966
		c0-6.627,5.372-12,12-12h97.989c6.627,0,12,5.373,12,12V44.322z"/>
	<text transform="matrix(1.143 0 0 1 14.4819 35.6455)" font-family="'ArialMT'" font-size="20.8531">Diet Crud</text>
	
		<radialGradient id="SVGID_1_" cx="-46.835" cy="30.144" r="18.7462" gradientTransform="matrix(0.83 0 0 1 45.7602 0)" gradientUnits="userSpaceOnUse">
		<stop  offset="0" style="stop-color:#E5E1DF"/>
		<stop  offset="0" style="stop-color:#F1EFEE"/>
		<stop  offset="0" style="stop-color:#FFFFFF"/>
		<stop  offset="0.1247" style="stop-color:#F0F1F1"/>
		<stop  offset="0.3627" style="stop-color:#C9CBCC"/>
		<stop  offset="0.5225" style="stop-color:#ACAEB0"/>
		<stop  offset="0.6034" style="stop-color:#A2A5A7"/>
		<stop  offset="0.7397" style="stop-color:#888D90"/>
		<stop  offset="0.9136" style="stop-color:#5E6669"/>
		<stop  offset="1" style="stop-color:#465054"/>
	</radialGradient>
	<path fill="url(#SVGID_1_)" d="M10.364,52.133c0,2.314-1.556,4.189-3.476,4.189l0,0c-1.921,0-3.477-1.875-3.477-4.189V8.154
		c0-2.313,1.556-4.188,3.477-4.188l0,0c1.92,0,3.476,1.875,3.476,4.188V52.133z"/>
	
		<radialGradient id="SVGID_2_" cx="92.9199" cy="30.144" r="18.7462" gradientTransform="matrix(0.83 0 0 1 45.7602 0)" gradientUnits="userSpaceOnUse">
		<stop  offset="0" style="stop-color:#E5E1DF"/>
		<stop  offset="0" style="stop-color:#F1EFEE"/>
		<stop  offset="0" style="stop-color:#FFFFFF"/>
		<stop  offset="0.1247" style="stop-color:#F0F1F1"/>
		<stop  offset="0.3627" style="stop-color:#C9CBCC"/>
		<stop  offset="0.5225" style="stop-color:#ACAEB0"/>
		<stop  offset="0.6034" style="stop-color:#A2A5A7"/>
		<stop  offset="0.7397" style="stop-color:#888D90"/>
		<stop  offset="0.9136" style="stop-color:#5E6669"/>
		<stop  offset="1" style="stop-color:#465054"/>
	</radialGradient>
	<path fill="url(#SVGID_2_)" d="M126.359,52.133c0,2.314-1.556,4.189-3.476,4.189l0,0c-1.921,0-3.477-1.875-3.477-4.189V8.154
		c0-2.313,1.556-4.188,3.477-4.188l0,0c1.92,0,3.476,1.875,3.476,4.188V52.133z"/>
</g>
</svg>
