<?xml version="1.0" encoding="utf-8"?>
<!-- Generator: Adobe Illustrator 13.0.0, SVG Export Plug-In . SVG Version: 6.00 Build 14948)  -->
<!DOCTYPE svg PUBLIC "-//W3C//DTD SVG 1.1//EN" "http://www.w3.org/Graphics/SVG/1.1/DTD/svg11.dtd">
<svg version="1.1" id="Layer_1" xmlns="http://www.w3.org/2000/svg" xmlns:xlink="http://www.w3.org/1999/xlink" x="0px" y="0px"
	 width="640px" height="480px" viewBox="0 0 640 480" enable-background="new 0 0 640 480" xml:space="preserve">
<rect x="119.133" y="44.573" stroke="#000000" width="376.44" height="402.617"/>
<g>
	<rect x="122.275" y="47.714" fill="#FF0000" width="285.34" height="396.335"/>
	<g>
		<rect x="122.275" y="47.714" fill="none" width="285.34" height="396.335"/>
		<path d="M122.275,51.214c42.742,0,85.484,0,128.226,0c51.126,0,102.252,0,153.379,0c1.245,0,2.49,0,3.735,0
			c-1.167-1.167-2.333-2.333-3.5-3.5c0,34.746,0,69.491,0,104.237c0,64.098,0,128.195,0,192.292c0,33.269,0,66.537,0,99.806
			c1.167-1.167,2.333-2.333,3.5-3.5c-42.742,0-85.483,0-128.226,0c-51.126,0-102.253,0-153.379,0c-1.245,0-2.49,0-3.735,0
			c1.167,1.167,2.333,2.333,3.5,3.5c0-34.746,0-69.491,0-104.237c0-64.097,0-128.194,0-192.292c0-33.269,0-66.537,0-99.806
			c0-4.514-7-4.514-7,0c0,34.746,0,69.491,0,104.237c0,64.098,0,128.195,0,192.292c0,33.269,0,66.537,0,99.806
			c0,1.908,1.592,3.5,3.5,3.5c42.742,0,85.484,0,128.226,0c51.126,0,102.252,0,153.379,0c1.245,0,2.49,0,3.735,0
			c1.908,0,3.5-1.592,3.5-3.5c0-34.746,0-69.491,0-104.237c0-64.097,0-128.194,0-192.292c0-33.269,0-66.537,0-99.806
			c0-1.908-1.592-3.5-3.5-3.5c-42.742,0-85.483,0-128.226,0c-51.126,0-102.253,0-153.379,0c-1.245,0-2.49,0-3.735,0
			C117.761,44.214,117.761,51.214,122.275,51.214z"/>
	</g>
</g>
<g>
	<rect x="412.327" y="158.709" fill="#CCCCCC" stroke="#000000" width="69.634" height="10.995"/>
	<circle fill="#999999" stroke="#000000" cx="446.882" cy="163.945" r="4.712"/>
</g>
<g>
	<rect x="411.804" y="116.3" fill="#CCCCCC" stroke="#000000" width="70.681" height="38.22"/>
	<rect x="454.212" y="130.96" fill="#999999" stroke="#000000" width="23.037" height="9.424"/>
	<line fill="none" stroke="#000000" stroke-width="3" x1="457.307" y1="135.195" x2="474.061" y2="135.195"/>
	<line fill="none" stroke="#000000" x1="411.804" y1="142.478" x2="482.438" y2="142.478"/>
	<radialGradient id="SVGID_1_" cx="420.4424" cy="129.6982" r="7.6989" gradientUnits="userSpaceOnUse">
		<stop  offset="0" style="stop-color:#E5E1DF"/>
		<stop  offset="0" style="stop-color:#F1EFEE"/>
		<stop  offset="0" style="stop-color:#FFFFFF"/>
		<stop  offset="0.1247" style="stop-color:#F0F1F1"/>
		<stop  offset="0.3627" style="stop-color:#C9CBCC"/>
		<stop  offset="0.5225" style="stop-color:#ACAEB0"/>
		<stop  offset="0.6034" style="stop-color:#A2A5A7"/>
		<stop  offset="0.7397" style="stop-color:#888D90"/>
		<stop  offset="0.9136" style="stop-color:#5E6669"/>
		<stop  offset="1" style="stop-color:#465054"/>
	</radialGradient>
	<rect x="415.469" y="120.012" fill="url(#SVGID_1_)" stroke="#000000" width="9.947" height="19.372"/>
	<rect x="415.469" y="120.012" fill="#999999" stroke="#000000" width="9.946" height="5.712"/>
	<rect x="454.212" y="119.133" fill="#70181B" stroke="#000000" width="23.037" height="9.424"/>
</g>
<g>
	<rect x="204.474" y="339.861" stroke="#000000" width="103.403" height="54.449"/>
	<rect x="204.474" y="372.844" fill="#333333" stroke="#000000" width="103.403" height="21.467"/>
</g>
<text transform="matrix(0 -1 1 0 270.251 329.6299)" fill="#F2F2F2" font-family="'ArialMT'" font-size="36">Vending Machine</text>
<g>
	<rect x="420.705" y="307.924" fill="#333333" width="52.354" height="38.22"/>
	<rect x="423.322" y="310.018" fill="#1A1A1A" width="20.942" height="20.942"/>
</g>
<g>
	<rect x="420.704" y="179" fill="#ED1B2F" width="52.355" height="20"/>
	<rect x="420.704" y="203" fill="#ED1B2F" width="52.355" height="20"/>
	<rect x="420.704" y="227" fill="#909090" width="52.355" height="20"/>
	<rect x="420.704" y="251" fill="#909090" width="52.355" height="20"/>
	<linearGradient id="SVGID_2_" gradientUnits="userSpaceOnUse" x1="420.7041" y1="285" x2="473.0596" y2="285">
		<stop  offset="0" style="stop-color:#2C308B"/>
		<stop  offset="1" style="stop-color:#87D300"/>
	</linearGradient>
	<rect x="420.704" y="275" fill="url(#SVGID_2_)" width="52.355" height="20"/>
	<text transform="matrix(1 0 0 1 433.3643 195.2163)" font-family="'ArialMT'" font-size="12">Crud</text>
	<text transform="matrix(1 0 0 1 422.2129 243.3574)" font-family="'ArialMT'" font-size="12">Diet Crud</text>
	<text transform="matrix(1 0 0 1 422.4844 267.582)" font-family="'ArialMT'" font-size="12">Diet Crud</text>
	<text transform="matrix(1 0 0 1 433.4951 218.7505)" font-family="'ArialMT'" font-size="12">Crud</text>
	<text transform="matrix(1 0 0 1 433.7461 291.2178)" fill="#FFFFFF" font-family="'ArialMT'" font-size="12">Spite</text>
</g>
</svg>
